<?xml version="1.0" standalone="no"?>
<!DOCTYPE svg PUBLIC "-//W3C//DTD SVG 20010904//EN"
 "http://www.w3.org/TR/2001/REC-SVG-20010904/DTD/svg10.dtd">
<svg version="1.0" xmlns="http://www.w3.org/2000/svg"
 width="1563.000000pt" height="1563.000000pt" viewBox="0 0 1563.000000 1563.000000"
 preserveAspectRatio="xMidYMid meet">

<g transform="translate(0.000000,1563.000000) scale(0.100000,-0.100000)"
fill="#000000" stroke="none">
<path d="M7583 11670 c-306 -32 -584 -117 -836 -256 -252 -139 -391 -245 -588
-449 -150 -155 -255 -296 -351 -470 -43 -79 -54 -101 -98 -200 -45 -99 -110
-314 -141 -465 -29 -141 -32 -176 -37 -387 -3 -151 0 -262 8 -315 6 -46 13
-99 16 -118 9 -63 16 -93 55 -231 21 -75 54 -176 73 -225 31 -83 137 -306 156
-329 4 -5 11 -123 15 -261 4 -139 10 -256 14 -262 3 -6 39 65 80 156 41 92
139 313 218 492 161 362 207 467 351 785 54 121 283 633 507 1138 l409 917
401 0 400 0 365 -821 c200 -452 370 -823 376 -826 21 -8 336 174 499 290 122
86 290 253 325 322 34 68 34 148 1 197 -73 106 -285 177 -616 207 -192 18
-220 19 -405 21 -198 3 -182 9 87 34 320 31 675 30 863 0 66 -11 174 -82 216
-143 21 -29 24 -31 19 -11 -26 91 -128 213 -206 247 -24 11 -54 24 -65 29 -12
5 -45 38 -75 74 -266 326 -577 560 -934 702 -118 48 -358 113 -509 138 -138
24 -457 34 -593 20z"/>
<path d="M7828 10384 c-3 -5 -30 -70 -61 -144 -58 -142 -151 -368 -387 -940
-78 -190 -153 -369 -166 -399 -13 -30 -22 -56 -19 -59 12 -12 556 163 835 268
91 34 187 71 214 81 27 10 54 23 59 28 12 12 -1 50 -85 251 -96 229 -272 653
-324 784 -51 126 -59 142 -66 130z"/>
<path d="M9995 9449 c-304 -307 -691 -581 -1200 -851 -699 -371 -1572 -678
-2385 -838 -91 -18 -167 -35 -170 -37 -9 -8 174 -160 273 -226 66 -45 167
-107 173 -107 2 0 26 -14 55 -31 108 -63 380 -168 529 -203 235 -55 491 -81
532 -54 16 11 65 17 163 21 461 21 961 214 1310 504 l69 58 -1238 5 c-1224 5
-1237 5 -1165 23 41 10 94 24 119 31 25 8 81 24 125 36 722 205 1377 476 1970
815 94 53 176 102 183 107 7 6 14 9 16 7 6 -6 64 -133 253 -559 97 -217 183
-411 192 -430 15 -33 16 -21 22 250 l6 285 55 110 c147 292 221 589 233 932 4
98 3 197 -2 221 l-8 42 -110 -111z"/>
<path d="M1675 6128 c-2 -7 -41 -155 -85 -328 -44 -173 -83 -321 -85 -327 -3
-10 19 -13 89 -13 l93 0 9 48 9 47 82 3 c89 3 84 7 98 -65 l7 -33 95 0 c71 0
94 3 90 13 -2 6 -42 159 -88 339 l-84 328 -113 0 c-81 0 -114 -3 -117 -12z
m143 -315 c12 -60 22 -111 22 -115 0 -5 -22 -8 -50 -8 -27 0 -50 3 -50 8 0 20
45 222 50 222 3 0 15 -48 28 -107z"/>
<path d="M2333 6125 c-65 -28 -68 -41 -68 -315 0 -135 3 -257 8 -272 4 -15 22
-37 40 -50 29 -21 45 -23 162 -26 211 -6 245 17 253 163 l5 85 -96 0 -96 0 -3
-62 -3 -63 -40 0 -40 0 0 215 0 215 40 0 40 0 3 -62 3 -63 96 0 96 0 -5 84
c-8 145 -37 166 -235 166 -86 -1 -138 -5 -160 -15z"/>
<path d="M2950 5800 l0 -340 90 0 90 0 0 135 0 135 65 0 65 0 0 -135 0 -135
90 0 90 0 0 340 0 340 -90 0 -90 0 0 -140 0 -140 -65 0 -65 0 0 140 0 140 -90
0 -90 0 0 -340z"/>
<path d="M4050 5800 l0 -341 194 3 c286 4 276 -8 276 338 0 264 -2 276 -53
314 -26 19 -44 21 -223 24 l-194 3 0 -341z m275 0 l0 -215 -42 -3 -43 -3 0
221 0 221 43 -3 42 -3 0 -215z"/>
<path d="M4750 5800 l0 -340 95 0 95 0 0 340 0 340 -95 0 -95 0 0 -340z"/>
<path d="M5233 6125 c-65 -28 -68 -41 -68 -315 0 -135 3 -257 8 -272 4 -15 22
-37 40 -50 30 -22 41 -23 182 -23 223 0 235 13 235 240 l0 135 -120 0 -120 0
0 -60 c0 -58 1 -60 25 -60 26 0 26 -1 23 -67 l-3 -68 -40 0 -40 0 0 215 0 215
40 0 40 0 3 -52 3 -53 95 0 94 0 0 63 c0 77 -23 126 -70 149 -45 23 -277 25
-327 3z"/>
<path d="M5850 5800 l0 -340 95 0 95 0 0 340 0 340 -95 0 -95 0 0 -340z"/>
<path d="M6230 6075 l0 -65 65 0 65 0 0 -275 0 -275 95 0 95 0 0 275 0 275 65
0 65 0 0 65 0 65 -225 0 -225 0 0 -65z"/>
<path d="M7006 6123 c-15 -50 -166 -643 -166 -652 0 -7 33 -11 89 -11 l89 0 7
33 c14 72 9 68 98 65 l82 -3 9 -47 9 -48 95 0 c93 0 94 0 88 23 -3 12 -43 165
-87 340 l-82 317 -113 0 c-99 0 -113 -2 -118 -17z m164 -415 c0 -15 -9 -18
-51 -18 -48 0 -51 1 -46 23 3 12 15 67 28 122 l22 100 23 -105 c13 -58 23
-113 24 -122z"/>
<path d="M7600 5800 l0 -340 200 0 200 0 0 65 0 65 -105 0 -105 0 0 275 0 275
-95 0 -95 0 0 -340z"/>
<path d="M8610 6122 c-54 -26 -70 -69 -70 -185 0 -167 19 -190 164 -197 l101
-5 0 -70 0 -70 -35 0 c-33 0 -35 2 -38 38 l-3 37 -96 0 -96 0 6 -65 c12 -123
34 -139 213 -143 212 -6 244 20 244 196 0 113 -14 162 -52 183 -12 8 -66 16
-118 19 l-95 5 0 70 0 70 35 0 c33 0 35 -2 38 -37 l3 -38 95 0 94 0 0 53 c0
67 -25 117 -70 139 -28 14 -61 18 -160 18 -99 0 -132 -4 -160 -18z"/>
<path d="M9288 6124 c-64 -27 -68 -48 -68 -326 0 -262 2 -274 53 -312 26 -19
42 -21 181 -21 237 0 236 -2 236 337 0 263 -6 288 -70 320 -47 24 -276 25
-332 2z m207 -324 l0 -205 -40 0 -40 0 -3 195 c-1 107 0 200 3 208 3 9 18 12
42 10 l38 -3 0 -205z"/>
<path d="M9920 5800 l0 -340 195 0 195 0 0 65 0 64 -102 3 -103 3 -3 273 -2
272 -90 0 -90 0 0 -340z"/>
<path d="M10510 5844 c0 -337 1 -341 76 -370 33 -13 71 -15 177 -13 119 4 139
7 164 25 48 35 52 65 52 372 l1 282 -95 0 -95 0 -2 -272 -3 -273 -33 -3 c-62
-6 -62 -7 -62 284 l0 264 -90 0 -90 0 0 -296z"/>
<path d="M11170 6075 l0 -65 65 0 65 0 0 -275 0 -275 95 0 95 0 0 275 0 275
65 0 65 0 0 65 0 65 -225 0 -225 0 0 -65z"/>
<path d="M11820 5800 l0 -340 90 0 90 0 0 340 0 340 -90 0 -90 0 0 -340z"/>
<path d="M12303 6125 c-65 -28 -68 -41 -68 -315 0 -135 3 -257 8 -272 4 -15
22 -37 40 -50 29 -21 45 -23 165 -27 108 -2 142 0 178 14 72 27 74 36 74 325
0 280 -3 295 -64 324 -45 21 -284 22 -333 1z m215 -322 l2 -203 -24 -6 c-13
-3 -35 -4 -47 -2 l-24 3 -3 195 c-1 107 0 200 3 208 3 9 19 12 47 10 l43 -3 3
-202z"/>
<path d="M12930 5800 l0 -340 85 0 85 0 2 176 3 176 75 -176 74 -176 78 0 78
0 0 340 0 340 -85 0 -85 0 -2 -171 -3 -172 -70 169 -70 169 -83 3 -82 3 0
-341z"/>
<path d="M13702 6123 c-52 -26 -62 -56 -62 -194 l0 -121 34 -34 c33 -33 36
-34 119 -34 117 0 117 0 117 -75 0 -65 -6 -75 -50 -75 -21 0 -40 28 -40 59 0
20 -6 21 -91 21 l-91 0 4 -69 c6 -117 45 -141 222 -141 134 0 188 16 211 61
11 20 15 62 15 148 0 119 0 121 -29 153 -29 32 -31 33 -133 38 l-103 5 0 70 0
70 34 3 c38 4 51 -9 51 -50 l0 -28 90 0 90 0 0 60 c0 125 -38 150 -227 150
-98 0 -136 -4 -161 -17z"/>
<path d="M4613 4714 c-32 -16 -63 -66 -63 -102 0 -16 -8 -21 -32 -24 -45 -4
-53 -38 -10 -38 l29 0 -28 -137 c-34 -168 -34 -155 -7 -151 19 3 24 14 40 93
10 50 23 114 29 143 l10 52 49 0 c44 0 60 10 60 36 0 2 -22 4 -50 4 -54 0 -57
4 -36 54 16 38 42 51 85 41 18 -4 32 -2 36 5 19 31 -63 49 -112 24z"/>
<path d="M11635 4717 c-39 -18 -51 -33 -64 -84 -11 -38 -15 -43 -41 -43 -23 0
-30 -5 -30 -20 0 -15 7 -20 25 -20 14 0 25 -4 25 -9 0 -4 -11 -63 -25 -131
-30 -147 -30 -150 -6 -150 21 0 19 -6 59 195 l18 90 52 3 c44 3 52 6 52 23 0
16 -7 19 -49 19 l-50 0 9 31 c15 53 39 72 82 66 21 -3 41 -1 44 5 17 27 -56
45 -101 25z"/>
<path d="M5024 4705 c-8 -21 2 -45 19 -45 20 0 40 27 33 45 -7 19 -45 20 -52
0z"/>
<path d="M6724 4705 c-8 -21 2 -45 19 -45 20 0 40 27 33 45 -7 19 -45 20 -52
0z"/>
<path d="M7316 4704 c-10 -26 19 -52 42 -38 9 6 17 20 17 30 0 26 -50 32 -59
8z"/>
<path d="M8131 4508 c-23 -117 -44 -221 -47 -230 -4 -14 1 -18 19 -18 24 0 26
5 52 143 15 78 35 181 45 230 l17 87 -22 0 c-21 0 -24 -12 -64 -212z"/>
<path d="M9280 4717 c0 -2 -20 -104 -45 -227 -25 -123 -45 -225 -45 -228 0 -2
10 -2 22 0 20 3 25 19 65 213 49 246 49 245 23 245 -11 0 -20 -1 -20 -3z"/>
<path d="M10117 4714 c-10 -11 -9 -42 3 -49 20 -12 51 6 48 28 -3 22 -36 35
-51 21z"/>
<path d="M3534 4686 c-115 -36 -192 -169 -170 -290 8 -44 59 -104 103 -122 68
-29 191 -14 248 29 16 12 17 17 6 31 -12 14 -16 13 -42 -6 -35 -26 -130 -36
-183 -18 -19 6 -47 25 -61 41 -49 60 -28 188 42 254 65 59 182 72 245 25 28
-21 31 -21 47 -5 15 15 15 17 -4 32 -56 43 -148 55 -231 29z"/>
<path d="M6216 4683 c-2 -10 -21 -101 -41 -203 -20 -102 -39 -193 -41 -202 -5
-16 5 -18 115 -18 131 0 192 14 248 56 49 37 84 104 90 173 14 151 -65 211
-277 211 -76 0 -89 -3 -94 -17z m261 -46 c66 -35 85 -137 41 -226 -40 -80
-108 -111 -245 -111 -62 0 -83 3 -83 13 0 15 59 315 66 336 6 20 178 11 221
-12z"/>
<path d="M8533 4681 c-48 -22 -73 -62 -73 -116 0 -49 31 -77 116 -105 38 -12
77 -29 87 -38 17 -15 22 -47 11 -77 -18 -46 -148 -61 -219 -25 -28 14 -42 17
-52 9 -18 -15 -8 -28 41 -50 91 -41 238 -14 271 52 36 69 8 122 -80 153 -115
40 -143 63 -131 110 14 58 121 85 203 51 39 -16 60 -8 50 19 -14 37 -156 47
-224 17z"/>
<path d="M4764 4625 c-5 -30 -10 -35 -34 -35 -16 0 -30 -7 -34 -16 -9 -23 -8
-24 24 -24 26 0 30 -3 25 -22 -40 -172 -43 -220 -15 -248 33 -33 140 -24 128
11 -3 9 -18 13 -44 11 -65 -5 -69 8 -43 137 l22 110 51 3 c39 2 52 7 54 21 3
14 -4 17 -47 17 l-50 0 6 35 c5 31 3 35 -15 35 -16 0 -23 -8 -28 -35z"/>
<path d="M7484 4625 c-5 -30 -10 -35 -34 -35 -16 0 -30 -7 -34 -16 -9 -23 -8
-24 24 -24 26 0 30 -3 25 -22 -40 -172 -43 -220 -15 -248 33 -33 140 -24 128
11 -3 9 -18 13 -44 11 -65 -5 -69 8 -43 137 l22 110 51 3 c39 2 52 7 54 21 3
14 -4 17 -47 17 l-50 0 6 35 c5 31 3 35 -15 35 -16 0 -23 -8 -28 -35z"/>
<path d="M9865 4648 c-2 -7 -5 -22 -7 -33 -2 -14 -12 -21 -36 -23 -24 -2 -32
-8 -32 -23 0 -14 7 -19 25 -19 30 0 30 1 6 -124 -11 -54 -17 -106 -14 -115 13
-34 36 -51 74 -51 49 0 69 8 69 29 0 13 -8 15 -45 13 -35 -3 -46 0 -52 13 -5
15 21 186 34 223 3 7 24 12 54 12 42 0 49 3 49 20 0 17 -7 20 -46 20 l-46 0 6
35 c6 31 4 35 -14 35 -11 0 -22 -6 -25 -12z"/>
<path d="M3831 4433 c-17 -87 -31 -161 -31 -165 0 -5 9 -8 20 -8 21 0 21 -1
45 119 9 41 21 86 28 100 15 31 72 71 102 71 15 0 25 8 28 21 5 20 3 21 -31
15 -20 -3 -49 -15 -64 -26 l-28 -21 0 26 c0 18 -5 25 -19 25 -16 0 -23 -22
-50 -157z"/>
<path d="M4155 4575 c-71 -39 -105 -97 -105 -180 0 -49 4 -60 34 -92 30 -33
39 -37 92 -40 45 -3 68 0 97 15 36 19 37 19 37 1 0 -12 7 -19 20 -19 11 0 20
2 20 3 0 2 14 71 30 152 35 175 35 175 11 175 -14 0 -21 -9 -26 -31 l-7 -31
-29 28 c-37 35 -126 45 -174 19z m156 -54 c23 -23 29 -38 29 -71 0 -52 -30
-110 -68 -132 -41 -25 -113 -23 -145 2 -47 38 -48 124 0 181 32 38 55 48 111
48 35 1 49 -5 73 -28z"/>
<path d="M4975 4443 c-15 -82 -30 -156 -33 -166 -4 -15 0 -18 19 -15 21 3 25
13 49 133 15 72 29 145 33 163 6 29 4 32 -16 32 -21 0 -25 -9 -52 -147z"/>
<path d="M5141 4433 c-17 -87 -31 -161 -31 -165 0 -5 9 -8 19 -8 22 0 24 3 47
125 23 115 54 155 130 162 38 4 54 1 73 -14 28 -23 30 -62 7 -171 -20 -94 -20
-102 3 -102 20 0 28 25 53 171 14 79 1 122 -43 144 -40 21 -108 19 -152 -5
l-37 -20 0 20 c0 13 -7 20 -19 20 -16 0 -23 -22 -50 -157z"/>
<path d="M5635 4573 c-93 -49 -132 -151 -89 -234 34 -66 145 -85 222 -39 18
11 32 16 32 12 0 -32 -26 -85 -51 -106 -25 -22 -41 -26 -91 -26 -35 0 -74 7
-95 16 -39 19 -66 7 -44 -20 36 -44 191 -48 249 -8 47 34 59 65 92 230 16 81
32 157 35 170 5 20 2 23 -17 20 -17 -2 -24 -11 -26 -30 -4 -31 -17 -37 -26
-13 -15 41 -135 58 -191 28z m144 -38 c34 -17 41 -33 41 -87 0 -55 -31 -102
-80 -122 -49 -20 -71 -20 -114 -2 -40 17 -61 61 -52 111 8 38 48 92 80 105 33
14 95 11 125 -5z"/>
<path d="M6675 4443 c-15 -82 -30 -156 -33 -166 -4 -15 0 -18 19 -15 21 3 25
13 49 133 15 72 29 145 33 163 6 29 4 32 -16 32 -21 0 -25 -9 -52 -147z"/>
<path d="M6920 4579 c-32 -13 -78 -56 -96 -91 -8 -15 -14 -52 -14 -82 0 -44 5
-60 26 -85 46 -55 140 -64 212 -19 l33 20 -7 -28 c-12 -50 -33 -83 -64 -99
-38 -20 -133 -19 -172 1 -28 14 -32 14 -46 0 -14 -14 -11 -17 29 -35 60 -28
156 -28 209 -1 56 29 75 74 114 266 l33 164 -23 0 c-19 0 -24 -5 -24 -24 0
-30 -16 -42 -27 -22 -22 39 -123 59 -183 35z m133 -41 c34 -18 46 -40 47 -81
1 -98 -92 -168 -184 -137 -66 21 -84 85 -47 159 32 61 125 91 184 59z"/>
<path d="M7271 4433 c-17 -87 -31 -161 -31 -165 0 -5 9 -8 20 -8 22 0 20 -7
55 169 30 149 31 161 6 161 -16 0 -23 -22 -50 -157z"/>
<path d="M7770 4579 c-33 -13 -78 -57 -97 -93 -20 -38 -22 -112 -4 -153 29
-69 135 -95 214 -53 l37 20 0 -20 c0 -13 7 -20 19 -20 16 0 23 22 50 158 17
86 31 160 31 165 0 4 -9 7 -20 7 -15 0 -22 -9 -27 -30 -6 -31 -6 -31 -27 -12
-11 11 -31 25 -43 31 -26 13 -99 13 -133 0z m143 -49 c54 -43 44 -144 -18
-199 -30 -26 -44 -31 -86 -31 -43 0 -55 5 -80 29 -50 51 -36 138 31 195 41 34
114 36 153 6z"/>
<path d="M8910 4579 c-65 -26 -112 -99 -114 -174 -1 -99 59 -151 164 -143 44
3 67 11 94 32 101 76 101 240 1 282 -39 16 -108 17 -145 3z m143 -49 c54 -43
44 -144 -18 -199 -30 -26 -44 -31 -86 -31 -43 0 -55 5 -80 29 -50 51 -36 138
31 195 41 34 114 36 153 6z"/>
<path d="M9410 4538 c-30 -141 -34 -184 -20 -217 25 -61 119 -80 194 -40 l39
20 -6 -20 c-4 -17 0 -21 17 -21 20 0 24 11 51 148 15 81 30 155 33 165 4 15 0
18 -18 15 -21 -3 -26 -14 -46 -113 -21 -100 -27 -113 -59 -142 -29 -28 -42
-33 -83 -33 -83 0 -99 45 -67 190 19 88 19 100 -4 100 -15 0 -22 -11 -31 -52z"/>
<path d="M10095 4578 c-2 -7 -16 -74 -30 -148 -14 -74 -29 -143 -31 -152 -4
-14 1 -18 19 -18 23 0 25 6 51 143 15 78 30 152 33 165 4 18 1 22 -16 22 -12
0 -23 -6 -26 -12z"/>
<path d="M10303 4571 c-119 -55 -139 -241 -32 -297 78 -40 206 3 244 83 25 50
25 139 2 175 -38 57 -135 74 -214 39z m140 -33 c36 -19 46 -40 47 -93 0 -89
-54 -145 -140 -145 -55 0 -79 14 -96 57 -25 58 3 139 59 173 36 22 97 26 130
8z"/>
<path d="M10655 4578 c-2 -7 -16 -74 -30 -148 -14 -74 -29 -143 -31 -152 -4
-14 1 -18 19 -18 23 0 26 6 41 91 9 51 23 107 31 125 29 69 138 99 183 51 27
-29 27 -40 2 -162 -11 -53 -20 -99 -20 -102 0 -2 10 -3 22 -1 19 3 25 14 40
88 25 123 23 173 -6 207 -22 25 -30 28 -89 28 -53 0 -71 -4 -98 -24 l-32 -24
7 27 c5 22 3 26 -14 26 -11 0 -22 -6 -25 -12z"/>
<path d="M11094 4576 c-55 -25 -79 -80 -54 -126 6 -12 33 -26 68 -35 90 -25
102 -32 102 -58 0 -39 -30 -57 -94 -57 -31 0 -70 7 -85 15 -30 15 -41 11 -41
-12 0 -22 63 -43 127 -43 86 0 143 42 143 106 0 28 -46 61 -100 73 -85 18
-110 51 -70 91 23 23 99 28 146 10 33 -13 52 6 30 29 -20 19 -134 25 -172 7z"/>
<path d="M11810 4579 c-65 -26 -112 -99 -114 -174 -1 -99 59 -151 164 -143 44
3 67 11 94 32 101 76 101 240 1 282 -39 16 -108 17 -145 3z m143 -49 c54 -43
44 -144 -18 -199 -30 -26 -44 -31 -86 -31 -43 0 -55 5 -80 29 -50 51 -36 138
31 195 41 34 114 36 153 6z"/>
<path d="M12125 4443 c-15 -82 -30 -156 -33 -166 -4 -15 0 -18 18 -15 21 3 26
13 45 106 25 122 44 151 111 174 30 10 50 23 53 34 3 14 -2 16 -35 11 -21 -4
-52 -16 -68 -28 l-29 -22 5 27 c4 22 2 26 -16 26 -20 0 -24 -12 -51 -147z"/>
<path d="M9985 3828 c-6 -20 -85 -422 -85 -435 0 -7 9 -13 20 -13 11 0 20 1
20 3 0 2 20 104 45 227 25 123 45 225 45 227 0 10 -41 1 -45 -9z"/>
<path d="M10394 3745 c-17 -93 -26 -111 -38 -80 -8 22 -67 45 -113 45 -125 0
-217 -139 -169 -255 30 -71 141 -99 214 -55 41 25 46 25 39 0 -4 -15 0 -20 17
-20 20 0 24 14 67 230 l46 230 -23 0 c-20 0 -24 -9 -40 -95z m-77 -90 c53 -37
50 -135 -6 -197 -24 -27 -36 -32 -89 -36 -55 -4 -63 -2 -86 21 -51 51 -26 174
42 212 35 19 112 19 139 0z"/>
<path d="M5925 3809 c-38 -15 -63 -37 -81 -71 -36 -69 2 -124 110 -158 106
-34 130 -71 82 -126 -33 -39 -131 -46 -201 -15 -37 17 -50 19 -56 9 -21 -33
60 -68 155 -68 105 0 166 46 166 125 0 55 -25 78 -119 110 -41 13 -80 30 -87
36 -23 19 -17 73 11 99 33 31 123 39 180 16 31 -13 40 -14 47 -4 12 20 10 24
-19 38 -38 17 -151 22 -188 9z"/>
<path d="M8610 3803 c0 -10 12 -109 27 -220 l27 -203 25 0 c23 0 34 14 84 108
103 191 139 254 143 250 3 -4 54 -337 54 -355 0 -2 12 -3 26 -1 23 3 40 30
140 213 62 116 113 214 114 218 0 5 -9 7 -21 5 -21 -3 -36 -28 -173 -281 -26
-49 -49 -87 -51 -85 -2 2 -13 73 -25 158 -29 216 -28 212 -53 208 -16 -2 -45
-48 -120 -186 -55 -100 -101 -181 -103 -179 -3 3 -54 347 -54 364 0 1 -9 3
-20 3 -12 0 -20 -7 -20 -17z"/>
<path d="M7596 3764 c-3 -9 -6 -24 -6 -34 0 -14 -9 -20 -32 -22 -45 -4 -53
-38 -10 -38 l29 0 -18 -87 c-25 -123 -25 -168 3 -187 39 -28 134 -14 122 17
-3 8 -20 11 -49 9 -39 -4 -45 -1 -50 20 -3 12 3 67 15 122 11 54 20 100 20
102 0 2 22 4 49 4 45 0 61 10 61 36 0 2 -23 4 -50 4 l-51 0 7 35 c5 31 4 35
-14 35 -11 0 -23 -7 -26 -16z"/>
<path d="M5305 3691 c-48 -22 -69 -44 -90 -94 -33 -79 -9 -169 54 -202 47 -24
121 -20 165 10 l36 25 -6 -25 c-5 -21 -3 -25 15 -25 23 0 20 -10 60 188 l28
142 -22 0 c-17 0 -24 -7 -29 -32 l-6 -32 -21 23 c-42 45 -116 54 -184 22z
m138 -33 c36 -19 46 -40 47 -93 0 -89 -54 -145 -140 -145 -55 0 -79 14 -96 57
-25 58 3 139 59 173 36 22 97 26 130 8z"/>
<path d="M6236 3693 c-7 -25 -56 -287 -56 -301 0 -7 9 -12 20 -12 11 0 20 2
20 4 0 25 43 203 55 226 28 55 115 78 163 44 28 -19 28 -64 3 -186 l-18 -88
22 0 c20 0 24 9 40 93 10 50 24 107 31 124 26 65 131 96 174 53 25 -25 25 -66
1 -182 l-18 -88 22 0 c21 0 24 9 45 115 25 136 19 175 -32 201 -46 24 -127 15
-172 -19 -33 -26 -36 -26 -45 -9 -25 47 -136 54 -192 13 l-30 -22 7 25 c5 22
3 26 -14 26 -11 0 -23 -8 -26 -17z"/>
<path d="M6950 3699 c-33 -13 -78 -57 -97 -93 -20 -38 -22 -112 -4 -153 29
-69 135 -95 214 -53 l37 20 0 -20 c0 -13 7 -20 19 -20 16 0 23 22 50 158 17
86 31 160 31 165 0 4 -9 7 -20 7 -15 0 -22 -9 -27 -30 -6 -31 -6 -31 -27 -12
-11 11 -31 25 -43 31 -26 13 -99 13 -133 0z m143 -49 c54 -43 44 -144 -18
-199 -30 -26 -44 -31 -86 -31 -43 0 -55 5 -80 29 -50 51 -36 138 31 195 41 34
114 36 153 6z"/>
<path d="M7325 3698 c-2 -7 -16 -74 -30 -148 -14 -74 -29 -143 -31 -152 -4
-14 1 -18 19 -18 22 0 26 6 32 43 28 178 57 231 134 243 32 5 41 11 41 27 0
17 -5 19 -37 14 -21 -4 -51 -16 -67 -28 l-29 -22 7 27 c5 22 3 26 -14 26 -11
0 -22 -6 -25 -12z"/>
<path d="M7858 3690 c-114 -61 -131 -237 -28 -292 58 -30 181 -17 205 22 14
22 -10 31 -41 15 -16 -8 -53 -15 -82 -15 -64 0 -102 30 -102 80 l0 30 134 0
c152 0 157 3 137 77 -25 94 -129 132 -223 83z m151 -37 c22 -18 44 -77 33 -87
-7 -8 -217 -8 -225 0 -10 10 20 60 49 83 34 27 112 29 143 4z"/>
<path d="M8206 3693 c-7 -25 -56 -287 -56 -301 0 -7 9 -12 20 -12 11 0 20 2
20 4 0 29 44 205 57 227 18 30 67 59 102 59 15 0 21 6 21 21 0 19 -4 21 -35
16 -19 -3 -48 -15 -64 -26 l-28 -20 5 24 c3 20 0 25 -16 25 -11 0 -23 -8 -26
-17z"/>
<path d="M9353 3691 c-119 -55 -139 -241 -32 -297 78 -40 206 3 244 83 25 50
25 139 2 175 -38 57 -135 74 -214 39z m140 -33 c36 -19 46 -40 47 -93 0 -89
-54 -145 -140 -145 -55 0 -79 14 -96 57 -25 58 3 139 59 173 36 22 97 26 130
8z"/>
<path d="M9706 3693 c-7 -25 -56 -287 -56 -301 0 -7 9 -12 20 -12 11 0 20 2
20 4 0 29 44 205 57 227 18 30 67 59 102 59 15 0 21 6 21 21 0 19 -4 21 -35
16 -19 -3 -48 -15 -64 -26 l-28 -20 5 24 c3 20 0 25 -16 25 -11 0 -23 -8 -26
-17z"/>
</g>
</svg>
